<svg width="32" height="32" viewBox="0 0 32 32" fill="none" xmlns="http://www.w3.org/2000/svg">
<path d="M20.716 23.2663C20.5564 24.6389 19.7243 25.7503 18.4356 26.2997C17.7134 26.6042 16.749 26.771 15.9755 26.7214C14.7854 26.6718 13.6698 26.377 12.6285 25.8534C12.2683 25.6551 11.7132 25.2834 11.2897 24.9363C11.1853 24.8371 11.1678 24.7875 11.2436 24.6849C11.2768 24.6247 11.3512 24.5147 11.5036 24.2917C11.736 23.9631 11.7609 23.9197 11.7856 23.8775C11.86 23.7709 11.9733 23.7612 12.0917 23.8454C12.1079 23.862 12.1079 23.862 12.1168 23.87C12.1326 23.8872 12.1326 23.8872 12.1751 23.9196C12.2189 23.9532 12.2507 23.9692 12.2585 23.9882C13.3743 24.8616 14.6732 25.3575 15.9845 25.4071C17.8045 25.3826 19.1125 24.5643 19.3534 23.2996C19.6015 21.9233 18.5168 20.7218 16.3957 20.0518C15.7274 19.8535 14.0457 19.1819 13.7352 18.995C12.2814 18.1435 11.5991 17.0258 11.6983 15.6398C11.8471 13.7243 13.6266 12.2986 15.8757 12.2861C16.874 12.2861 17.8802 12.4942 18.8349 12.8958C19.1792 13.0422 19.7937 13.3751 19.9981 13.5343C20.1208 13.6252 20.1469 13.7243 20.0713 13.8353C20.0461 13.903 19.9721 14.0039 19.8443 14.2203C19.658 14.5044 19.651 14.5163 19.6172 14.5788C19.5509 14.6831 19.456 14.6914 19.3297 14.6167C18.3094 13.9228 17.1584 13.5755 15.9009 13.5507C14.339 13.5755 13.1646 14.5064 13.089 15.7821C13.0734 16.928 13.9292 17.7628 15.7825 18.3914C19.552 19.6058 20.9899 21.0245 20.716 23.2663ZM16.0679 3.49194C18.5169 3.49194 20.5177 5.81567 20.6168 8.72874H11.5248C11.6123 5.81567 13.6189 3.49194 16.0679 3.49194ZM28.7613 9.28063C28.7613 8.97663 28.526 8.72874 28.2257 8.72874H28.2061H22.3287C22.18 4.88532 19.4308 1.81332 16.0679 1.81332C12.703 1.81332 9.96089 4.88532 9.81422 8.72874H3.91214C3.61614 8.73546 3.38126 8.97791 3.38126 9.28063C3.38126 9.29812 3.38126 9.3058 3.38126 9.3233H3.37454L4.21284 27.8618C4.21284 27.9119 4.22265 27.9624 4.22265 28.0227C4.22265 28.0344 4.22425 28.0381 4.22425 28.0602V28.0885L4.23044 28.0983C4.35662 29.3908 5.29038 30.4212 6.56654 30.4717V30.4815H25.2875C25.2973 30.4815 25.3031 30.4815 25.3128 30.4815C25.3273 30.4815 25.3273 30.4815 25.338 30.4815H25.3768V30.4717C26.6711 30.4402 27.7308 29.3908 27.8318 28.0842L27.8375 28.0602C27.8375 28.0479 27.8375 28.0346 27.8375 28.0227C27.8375 27.985 27.8473 27.961 27.8473 27.9217L28.7613 9.3058C28.7613 9.29898 28.7613 9.28842 28.7613 9.28063Z" fill="#EE4D2D"/>
</svg>
