<svg width="111" height="24" viewBox="0 0 111 24" fill="none" xmlns="http://www.w3.org/2000/svg">
<g clip-path="url(#clip0_43_62)">
<path fill-rule="evenodd" clip-rule="evenodd" d="M59.0069 16.8276C57.8077 18.0461 56.373 18.6585 54.7117 18.6585C53.3672 18.6585 52.2246 18.3841 51.0593 17.7057V14.9112C51.9975 15.5481 53.176 16.1548 54.3393 16.1548C56.7647 16.1548 58.2069 14.4836 58.2069 12.1161C58.2069 9.74594 56.7139 8.02511 54.2869 8.02511C53.2033 8.02511 52.325 8.41518 51.6389 9.19697C50.9035 10.0439 50.5233 11.2544 50.5233 12.8549V23.8839H50.3406C49.0038 23.8839 47.921 22.7992 47.921 21.4612V12.4406C47.921 8.61159 50.2581 5.52194 54.2741 5.52194C56.2575 5.52194 57.8686 6.20111 59.0906 7.56525C60.2391 8.84001 60.8082 10.4563 60.8082 12.3984C60.8082 14.128 60.2076 15.6066 59.0076 16.8259L59.0069 16.8276ZM87.1724 16.7342C85.9779 18.018 84.4406 18.6586 82.5766 18.6586C80.6091 18.6586 79.0069 17.9794 77.7848 16.6153C76.637 15.3248 76.0676 13.7077 76.0676 11.7822C76.0676 8.3725 78.696 5.52285 82.1559 5.52285C83.4899 5.52285 84.6483 5.80478 85.8193 6.44754V9.26961C84.8811 8.63264 83.7029 8.02602 82.5393 8.02602C80.1139 8.02602 78.669 9.69692 78.669 12.0674C78.669 14.4042 80.197 16.1584 82.589 16.1584C83.6717 16.1584 84.5633 15.7521 85.2764 14.9339C85.9851 14.1206 86.3534 12.9259 86.3534 11.3201V2.54216C86.3534 1.20368 87.437 0.119537 88.773 0.119537H88.9557V11.7333C88.9557 13.7786 88.3645 15.452 87.1714 16.7375L87.1724 16.7342ZM94.5214 4.2845C94.2483 4.59071 93.8568 4.73168 93.379 4.73168C92.4858 4.73168 91.8463 4.07209 91.8463 3.18436C91.8463 2.27595 92.4737 1.66271 93.379 1.66271C94.2502 1.66271 94.9117 2.30933 94.9117 3.18436C94.9117 3.61719 94.785 3.98823 94.5214 4.2845ZM107.743 11.319C107.743 10.2917 107.355 9.47871 106.576 8.86243C105.873 8.30795 104.996 8.02602 103.929 8.02602C101.573 8.02602 100.061 9.86961 100.061 12.1419C100.061 14.3297 101.664 16.1557 103.904 16.1557C105.462 16.1557 106.295 15.2445 107.184 14.1093V17.3811C106.731 17.7206 106.21 18.0908 105.679 18.3082C105.118 18.5427 104.448 18.6566 103.675 18.6566C99.9286 18.6566 97.4596 15.5504 97.4596 11.9615C97.4596 10.1182 98.0314 8.59319 99.1826 7.40699C100.404 6.14768 102.007 5.52312 103.969 5.52312C107.687 5.52312 110.35 7.66133 110.35 11.5259V18.4031H110.167C108.83 18.4031 107.746 17.3184 107.746 15.9802L107.743 11.319ZM72.1297 10.5811C71.8008 9.56257 71.3887 9.06161 70.4403 8.5314C68.1851 7.26961 65.9658 8.34384 64.9341 10.5711L72.1297 10.5811ZM70.144 18.6197C68.4817 18.9733 66.8502 18.7007 65.2585 17.81C63.7059 16.9422 62.6665 15.6514 62.1468 13.9452C61.0932 10.4969 63.2513 6.6514 66.7233 5.72174C68.4439 5.2605 70.0943 5.46927 71.6612 6.34602C74.2643 7.80312 75.2143 10.0564 75.0461 12.9612L64.5606 12.9402C64.7151 14.1245 65.4483 15.0511 66.4792 15.6274C67.5241 16.2119 68.485 16.3518 69.3757 16.0748C70.3658 15.7637 71.1686 14.9548 71.8215 14.202L73.9583 15.7606C73.0869 17.322 71.9004 18.2461 70.1432 18.6213L70.144 18.6197ZM92.0888 5.78105H94.691V18.4017H94.508C93.1725 18.4017 92.0889 17.3171 92.0889 15.9788L92.0888 5.78105ZM3.81297 18.4017C1.26759 18.4017 0.00331116 16.6682 0.00331116 14.2473V5.06381C0.00331116 3.72561 1.0869 2.64119 2.42345 2.64119H2.60618V5.78326H7.00342V8.28588H2.60618V14.5397C2.60618 15.6028 3.08011 15.9016 4.09473 15.9016H7.00232V18.404L3.81297 18.4017ZM18.9274 16.8067C17.6419 18.0409 16.0971 18.6591 14.3012 18.6591C12.5228 18.6591 10.9854 18.0401 9.69986 16.8067C8.40993 15.5681 7.7669 13.9929 7.7669 12.0922C7.7669 8.38464 10.5945 5.52395 14.2993 5.52395C16.0783 5.52395 17.6179 6.14768 18.9117 7.39016C20.2099 8.6365 20.8582 10.2095 20.8582 12.0908C20.8582 13.9907 20.2143 15.5667 18.9244 16.8053L18.9274 16.8067ZM31.0957 8.81774C30.7139 9.45885 30.4179 9.91843 30.2097 10.1962C29.9801 10.4983 29.7534 10.7394 29.5288 10.9063C31.3374 11.4911 32.011 12.7457 32.011 14.6139V18.4015H31.8283C30.492 18.4015 29.4082 17.3168 29.4082 15.9786V14.8721C29.4082 13.6619 28.8661 12.8409 27.5855 12.8409H25.2222V18.4023H25.0395C23.7032 18.4023 22.6205 17.3176 22.6205 15.9794V2.54216C22.6205 1.20368 23.703 0.119537 25.0395 0.119537H25.2222V10.3154H25.9913C26.8366 10.3154 27.3919 10.026 27.7108 9.47843L29.8967 5.78464L32.8622 5.78169L31.0957 8.81774ZM44.5302 16.8067C43.2441 18.0409 41.6999 18.6591 39.904 18.6591C38.1258 18.6591 36.5881 18.0401 35.3026 16.8067C34.0127 15.5681 33.3697 13.9929 33.3697 12.0922C33.3697 8.38464 36.1972 5.52395 39.9021 5.52395C41.6817 5.52395 43.2207 6.14768 44.5145 7.39016C45.8127 8.6365 46.4607 10.2095 46.4607 12.0908C46.4607 13.9907 45.8171 15.5667 44.5272 16.8053L44.5302 16.8067ZM42.6519 9.1543C41.9343 8.40312 41.0237 8.02602 39.9037 8.02602C37.509 8.02602 36.0748 9.77416 36.0748 12.0922C36.0748 14.3772 37.5423 16.1584 39.9037 16.1584C42.2654 16.1584 43.7327 14.3783 43.7327 12.0922C43.7327 10.879 43.3683 9.90547 42.6519 9.1543ZM17.0519 9.1543C16.3346 8.40312 15.4237 8.02602 14.304 8.02602C11.9092 8.02602 10.475 9.77416 10.475 12.0922C10.475 14.3772 11.9426 16.1584 14.304 16.1584C16.6654 16.1584 18.133 14.3783 18.133 12.0922C18.133 10.879 17.7691 9.90547 17.0524 9.1543H17.0519Z" fill="#00AA5B"/>
</g>
<defs>
<clipPath id="clip0_43_62">
<rect width="110.345" height="24" fill="white"/>
</clipPath>
</defs>
</svg>
